<?xml version="1.0" encoding="utf-8"?>
<!-- Generator: Adobe Illustrator 17.0.0, SVG Export Plug-In . SVG Version: 6.00 Build 0)  -->
<!DOCTYPE svg PUBLIC "-//W3C//DTD SVG 1.1//EN" "http://www.w3.org/Graphics/SVG/1.1/DTD/svg11.dtd" [
	<!ENTITY ns_extend "http://ns.adobe.com/Extensibility/1.0/">
	<!ENTITY ns_ai "http://ns.adobe.com/AdobeIllustrator/10.0/">
	<!ENTITY ns_graphs "http://ns.adobe.com/Graphs/1.0/">
	<!ENTITY ns_vars "http://ns.adobe.com/Variables/1.0/">
	<!ENTITY ns_imrep "http://ns.adobe.com/ImageReplacement/1.0/">
	<!ENTITY ns_sfw "http://ns.adobe.com/SaveForWeb/1.0/">
	<!ENTITY ns_custom "http://ns.adobe.com/GenericCustomNamespace/1.0/">
	<!ENTITY ns_adobe_xpath "http://ns.adobe.com/XPath/1.0/">
]>
<svg version="1.1" id="Layer_1" xmlns:x="&ns_extend;" xmlns:i="&ns_ai;" xmlns:graph="&ns_graphs;"
	 xmlns="http://www.w3.org/2000/svg" xmlns:xlink="http://www.w3.org/1999/xlink" x="0px" y="0px" width="274.333px" height="160px"
	 viewBox="0 0 274.333 160" enable-background="new 0 0 274.333 160" xml:space="preserve">
<metadata>
	<sfw  xmlns="&ns_sfw;">
		<slices></slices>
		<sliceSourceBounds  height="16385" width="16383" y="-8273" x="-7831" bottomLeftOrigin="true"></sliceSourceBounds>
	</sfw>
</metadata>
<image display="none" overflow="visible" opacity="0.5" width="293" height="63" xlink:href="websutra-logo.png"  transform="matrix(2.4573 0 0 2.4573 2 3)">
</image>
<polygon display="none" fill="#DF675E" points="2,42 68,3 68,81 "/>
<rect x="68" y="3" display="none" opacity="0.6" fill="#EDAAA5" width="3" height="154"/>
<path fill="#D84136" d="M206,157"/>
<polygon fill="#ED5F73" points="3,42 3,118 69,155.5 69,80 "/>
<polygon fill="#3E34C6" points="3,42 69,5.25 69,80 "/>
<polygon fill="#3E34C6" points="69,80 138,118 69,155.5 "/>
<polygon fill="#ED5F73" points="69,80 138,42.625 138,118 "/>
<polygon fill="#ED5F73" points="206,155 138,118 206,80.313 "/>
<polygon fill="#3E34C6" points="138,118 206,80.313 138,42.625 "/>
<polygon fill="#ED5F73" points="206,81.375 206,5 271,42 "/>
<polygon fill="#3E34C6" points="271,42 271,118 206,155.813 206,80.313 "/>
</svg>
