<?xml version="1.0" encoding="utf-8"?>
<!-- Generator: Adobe Illustrator 17.0.0, SVG Export Plug-In . SVG Version: 6.00 Build 0)  -->
<!DOCTYPE svg PUBLIC "-//W3C//DTD SVG 1.1//EN" "http://www.w3.org/Graphics/SVG/1.1/DTD/svg11.dtd" [
	<!ENTITY ns_extend "http://ns.adobe.com/Extensibility/1.0/">
	<!ENTITY ns_ai "http://ns.adobe.com/AdobeIllustrator/10.0/">
	<!ENTITY ns_graphs "http://ns.adobe.com/Graphs/1.0/">
	<!ENTITY ns_vars "http://ns.adobe.com/Variables/1.0/">
	<!ENTITY ns_imrep "http://ns.adobe.com/ImageReplacement/1.0/">
	<!ENTITY ns_sfw "http://ns.adobe.com/SaveForWeb/1.0/">
	<!ENTITY ns_custom "http://ns.adobe.com/GenericCustomNamespace/1.0/">
	<!ENTITY ns_adobe_xpath "http://ns.adobe.com/XPath/1.0/">
]>
<svg version="1.1" id="Layer_1" xmlns:x="&ns_extend;" xmlns:i="&ns_ai;" xmlns:graph="&ns_graphs;"
	 xmlns="http://www.w3.org/2000/svg" xmlns:xlink="http://www.w3.org/1999/xlink" x="0px" y="0px" width="720px" height="720px"
	 viewBox="0 0 720 720" enable-background="new 0 0 720 720" xml:space="preserve">
<metadata>
	<sfw  xmlns="&ns_sfw;">
		<slices></slices>
		<sliceSourceBounds  height="16383" width="16383" y="-8552" x="-7831" bottomLeftOrigin="true"></sliceSourceBounds>
		<optimizationSettings>
			<targetSettings  fileFormat="PNG24Format" targetSettingsID="0">
				<PNG24Format  transparency="true" interlaced="false" noMatteColor="false" matteColor="#FFFFFF" filtered="false">
					</PNG24Format>
			</targetSettings>
		</optimizationSettings>
	</sfw>
</metadata>
<rect display="none" fill="#EC008C" width="720" height="720"/>
<path fill="#FFFFFF" d="M384.862,245.27"/>
<path fill="none" stroke="#E02020" stroke-miterlimit="10" d="M425.276,329.69"/>
<path fill="#00A652" stroke="#00A652" stroke-miterlimit="10" d="M48.376,469.47l15.968-14.962
	c17.029-15.957,42.337-16.616,56.527-1.472l195.462,195.657c13.802,13.802,29.463,20.472,44.431,20.472
	c14.369,0,24.359-2.705,43.218-20.472L600.58,452.053c14.155-15.181,39.718-14.224,57.096,2.137l16.295,15.342l0,0l26.888-29.018
	c19.343-19.54,15.793-52.908,2.169-70.796L395.489,63.377c-19.922-17.855-56.827-16.477-74.333,3.054l0.325-0.407L16.773,374.642
	c-12.895,17.816-17.754,47.226,3.325,65.144l28.288,29.117"/>
<path fill="#196D3B" d="M385.083,314.729c-7.212-11.374-13.506-13.232-22.816-13.407c-11.288-0.212-18.382,4.91-22.989,14.722
	l-63.783,133.989l28.432-1.571l55.229-97.401c0.224-0.605,1.173-2.306,1.837-3.892c0.697-1.666,1.112-2.959,1.492-2.268
	c0.641,1.167,2.029,4.648,2.721,5.887l56.589,98.346l27.072,0.898L385.083,314.729z"/>
<path display="none" fill="#25262B" d="M424.159,328.337c0,0-8.246-19.209-17.442-39.561c-3.449-7.632-6.553-15.976-9.888-22.859
	c-2.001-4.13-4.706-7.281-6.996-10.706c-0.125-0.186-0.265-0.368-0.417-0.546c-1.045-1.225-2.654-2.259-3.633-3.141
	c-3.411-3.073-6.281-4.311-8.283-5.356c-2.513-1.311-7.325-1.681-10.423-2.323c-1.427-0.296-3.381-0.384-4.235-0.353
	c-12.09,0.452-41.423,0.843-53.009,0.843L424.159,328.337z"/>
<image display="none" overflow="visible" width="2160" height="2160" xlink:href="logo.png"  transform="matrix(0.3352 0 0 0.3352 -4 -6.0783)">
</image>
<path fill="#25262B" d="M396.001,264.582"/>
<g>
	<g>
		<path fill="#FFFFFF" d="M396.184,264.887c-10.424-17.513-19.523-20.765-32.98-21.035c-16.317-0.327-26.571,8.146-33.231,23.254
			L237.776,474h55.482l65.45-153.171c0.323-0.931,1.696-3.941,2.655-6.383c1.008-2.566,1.608-4.751,2.156-3.688
			c0.927,1.796,2.933,7.84,3.933,9.749L432.011,474h56.371L396.184,264.887z"/>
	</g>
	<g>
		<polygon fill="#25262B" points="426.472,333.582 407.017,289.456 395.917,264.245 371.917,246.917 368.5,245.27 363.204,243.852 
			360.5,243.843 345.99,244 306.417,244.078 		"/>
		<path fill="#25262B" d="M396.184,264.887c0,0-4.42-10.754-15.545-17.194c-4.444-2.572-10.522-3.884-17.435-3.841"/>
	</g>
</g>
</svg>
