<?xml version="1.0" encoding="utf-8"?>
<!-- Generator: Adobe Illustrator 17.0.0, SVG Export Plug-In . SVG Version: 6.00 Build 0)  -->
<!DOCTYPE svg PUBLIC "-//W3C//DTD SVG 1.1//EN" "http://www.w3.org/Graphics/SVG/1.1/DTD/svg11.dtd" [
	<!ENTITY ns_extend "http://ns.adobe.com/Extensibility/1.0/">
	<!ENTITY ns_ai "http://ns.adobe.com/AdobeIllustrator/10.0/">
	<!ENTITY ns_graphs "http://ns.adobe.com/Graphs/1.0/">
	<!ENTITY ns_vars "http://ns.adobe.com/Variables/1.0/">
	<!ENTITY ns_imrep "http://ns.adobe.com/ImageReplacement/1.0/">
	<!ENTITY ns_sfw "http://ns.adobe.com/SaveForWeb/1.0/">
	<!ENTITY ns_custom "http://ns.adobe.com/GenericCustomNamespace/1.0/">
	<!ENTITY ns_adobe_xpath "http://ns.adobe.com/XPath/1.0/">
]>
<svg version="1.1" id="Layer_1" xmlns:x="&ns_extend;" xmlns:i="&ns_ai;" xmlns:graph="&ns_graphs;"
	 xmlns="http://www.w3.org/2000/svg" xmlns:xlink="http://www.w3.org/1999/xlink" x="0px" y="0px" width="800px" height="553.333px"
	 viewBox="0 0 800 553.333" enable-background="new 0 0 800 553.333" xml:space="preserve">
<metadata>
	<sfw  xmlns="&ns_sfw;">
		<slices></slices>
		<sliceSourceBounds  height="16383" width="16383" x="-7792" y="-7791" bottomLeftOrigin="true"></sliceSourceBounds>
		<optimizationSettings>
			<targetSettings  fileFormat="PNG24Format" targetSettingsID="0">
				<PNG24Format  transparency="true" interlaced="false" filtered="false" noMatteColor="false" matteColor="#FFFFFF">
					</PNG24Format>
			</targetSettings>
		</optimizationSettings>
	</sfw>
</metadata>
<rect y="0" fill="#089AC9" width="800" height="553.333"/>
<path fill="#FFFFFF" stroke="#F2F2F2" stroke-miterlimit="10" d="M590.67,238.663C490.67,64.003,324,84.003,324,84.003
	C6.67,86.663,35.33,413.333,35.33,413.333c16,42.67,54.67,34.67,54.67,34.67c3.33-79.34,76.67-101.34,76.67-101.34
	c138.66-21.33,135.33,100,135.33,100c14.67,0,184,0,184,0c20-93.33,76-99.33,76-99.33c130-25.33,138.67,101.26,138.67,101.26
	c42.66,3.26,62-3.26,62-3.26C818,285.333,590.67,238.663,590.67,238.663z M291,260.333c0,0-0.03,0-0.09,0.01
	c-3.21,0.42-88.78,11.21-159.91-3.51c0,0-16.5-15,0-37.5c0,0,47.5-100,162.5-100c0,0,13,1.5,17.5,23c0,0,5.5,70,0,94
	C311,236.333,311.5,260.333,291,260.333z M535.5,259.333c0,0-121.5,8.5-171.5,2c0,0-19-5.5-22.75-22.75s0.75-78.25,3.75-104.75
	c0,0,2.5-11.5,19-14.5c0,0,100-10,187,124.5C551,243.833,555,259.333,535.5,259.333z"/>
<path fill="none" stroke="#000000" stroke-miterlimit="10" d="M-216.667,197.333"/>
<path fill="#FFFFFF" stroke="#F2F2F2" stroke-miterlimit="10" d="M196,354.503c-52.47,0-95,42.54-95,95c0,52.47,42.53,95,95,95
	s95-42.53,95-95C291,397.043,248.47,354.503,196,354.503z M197,482.333c-18.23,0-33-14.77-33-33s14.77-33,33-33s33,14.77,33,33
	S215.23,482.333,197,482.333z"/>
<path fill="#FFFFFF" stroke="#F2F2F2" stroke-miterlimit="10" d="M593.8,354.503c-52.47,0-95,42.54-95,95c0,52.47,42.53,95,95,95
	c52.46,0,95-42.53,95-95C688.8,397.043,646.26,354.503,593.8,354.503z M593.8,482.333c-18.23,0-33-14.77-33-33s14.77-33,33-33
	c18.22,0,33,14.77,33,33S612.02,482.333,593.8,482.333z"/>
<path fill="#FFFFFF" stroke="#FFFFFF" stroke-miterlimit="10" d="M291,184.833c13.5-23.5-10-22-10-22c0-22-18-12.5-18-12.5
	c-6.5-20.5-22-4-22-4c-13.5-13.5-22.44,7-22.44,7c-14.95-8.5-15.28,8.5-15.28,8.5c-3.72,0-23.03,9.75-15.28,17.5s9,9,9,9
	c-1,7.5-1,7.5-1,7.5c-13,27.5,22.56,50,22.56,50c-27.45-3-27.06,17.95-27.06,17.95c32.45,2.48,96.63-3.19,99.41-3.44
	c0.06-0.01,0.09-0.01,0.09-0.01c0-16.5-19.5-14.5-19.5-14.5C307.99,227.363,291,184.833,291,184.833z M262.45,191.003
	c3.56,0,6.44,1.66,6.44,3.71s-2.88,3.71-6.44,3.71c-3.57,0-6.45-1.66-6.45-3.71S258.88,191.003,262.45,191.003z M224.12,191.003
	c3.56,0,6.45,1.66,6.45,3.71s-2.89,3.71-6.45,3.71c-3.57,0-6.45-1.66-6.45-3.71S220.55,191.003,224.12,191.003z M244.5,224.083
	c0,0-17.49,12.66-33.99-1.36c0.36,0.11,8.66,2.68,10.99,0.36c0,0,5.78-12.63,22.5-4.25c0,0,12.75-11.25,21.75,3.25
	c0,0,6.25,3.03,11,1.51C276.75,223.593,269.77,231.583,244.5,224.083z"/>
<path fill="#FFFFFF" stroke="#FFFFFF" stroke-miterlimit="10" d="M395.33,141.663c-43.66,10.34-35.66,73.01-35.66,73.01
	c-5.84,5.84-4.34,14.66-4.34,14.66c18,6.66,32.63,4.3,32.63,4.3c6.33,6.33-1.96,7.7-1.96,7.7c-18.33-3-21.11,16.78-17.36,20.54
	c1.14,1.14,96.21,0.87,98.71,0.94c6.68-26.52-21.77-22.81-21.77-22.81c-4.21-4.21,0-6.14,0-6.14c16.58,3.19,20.09-4.53,20.09-4.53
	c11.66,3.33,13.66,0,13.66,0C484.33,113.333,395.33,141.663,395.33,141.663z M399,184.483c3.68,0,6.67,1.34,6.67,2.99
	c0,1.66-2.99,3-6.67,3s-6.67-1.34-6.67-3C392.33,185.823,395.32,184.483,399,184.483z M439.75,216.613
	c-2.86,5.39-17.75,10.38-21.99,10.3c-9.92-0.19-23.7-7.98-24.51-9.83c-2.92-6.63,10.69,3.75,23.88,3.75
	C428.75,220.833,444.13,208.363,439.75,216.613z M436.35,190.473c-3.68,0-6.67-1.34-6.67-3c0-1.65,2.99-2.99,6.67-2.99
	c3.68,0,6.67,1.34,6.67,2.99C443.02,189.133,440.03,190.473,436.35,190.473z"/>
</svg>
