<?xml version="1.0" encoding="utf-8"?>
<!-- Generator: Adobe Illustrator 17.0.0, SVG Export Plug-In . SVG Version: 6.00 Build 0)  -->
<!DOCTYPE svg PUBLIC "-//W3C//DTD SVG 1.1//EN" "http://www.w3.org/Graphics/SVG/1.1/DTD/svg11.dtd" [
	<!ENTITY ns_extend "http://ns.adobe.com/Extensibility/1.0/">
	<!ENTITY ns_ai "http://ns.adobe.com/AdobeIllustrator/10.0/">
	<!ENTITY ns_graphs "http://ns.adobe.com/Graphs/1.0/">
	<!ENTITY ns_vars "http://ns.adobe.com/Variables/1.0/">
	<!ENTITY ns_imrep "http://ns.adobe.com/ImageReplacement/1.0/">
	<!ENTITY ns_sfw "http://ns.adobe.com/SaveForWeb/1.0/">
	<!ENTITY ns_custom "http://ns.adobe.com/GenericCustomNamespace/1.0/">
	<!ENTITY ns_adobe_xpath "http://ns.adobe.com/XPath/1.0/">
]>
<svg version="1.1" id="Layer_1" xmlns:x="&ns_extend;" xmlns:i="&ns_ai;" xmlns:graph="&ns_graphs;"
	 xmlns="http://www.w3.org/2000/svg" xmlns:xlink="http://www.w3.org/1999/xlink" x="0px" y="0px" width="1698.17px"
	 height="1368.137px" viewBox="0 0 1698.17 1368.137" enable-background="new 0 0 1698.17 1368.137" xml:space="preserve">
<metadata>
	<sfw  xmlns="&ns_sfw;">
		<slices></slices>
		<sliceSourceBounds  height="1121.495" width="16383" y="304.992" x="-7192" bottomLeftOrigin="true"></sliceSourceBounds>
		<optimizationSettings>
			<targetSettings  fileFormat="PNG24Format" targetSettingsID="0">
				<PNG24Format  transparency="true" filtered="false" matteColor="#FFFFFF" interlaced="false" noMatteColor="false">
					</PNG24Format>
			</targetSettings>
		</optimizationSettings>
	</sfw>
</metadata>
<image display="none" overflow="visible" width="535" height="300" xlink:href="scooty-anim.PNG"  transform="matrix(3.7383 0 0 3.7383 -164.7393 126.7492)">
</image>
<g>
	<g>
		<g>
			<path fill="#42CC1B" d="M691.931,433.769c0-25.756,20.879-46.636,46.636-46.636c25.756,0,46.636,20.879,46.636,46.636"/>
			<g>
				<g>
					<g>
						<g>
							<path fill="#42CC1B" d="M1067.572,685.208l-1.027,0.446c-0.112-0.257-0.234-0.524-0.346-0.781
								C993.631,519.74,941.971,426.206,730.021,423.785c-213.378-2.432-289.551,130.477-335.833,261.088
								c-0.089,0.245-0.178,0.502-0.268,0.748l-0.524-0.19l-0.524-0.19c19.771-55.911,49.573-126.951,105.026-180.407
								c27.414-26.432,59.448-46.706,95.197-60.251c39.888-15.118,85.947-22.483,136.948-21.914
								c101.478,1.16,169.919,23.051,221.936,71.007C1000.961,538.831,1032.035,604.304,1067.572,685.208z"/>
						</g>
					</g>
				</g>
				<g>
					<path fill="#42CC1B" d="M1067.572,684.873H395.561c31.143-130.727,122.455-263.52,335.833-261.088
						C943.343,426.206,995.003,519.74,1067.572,684.873z"/>
					<rect x="393.396" y="684.873" fill="#42CC1B" width="673.662" height="1.116"/>
				</g>
			</g>
			<path fill="#42CC1B" d="M1076.772,709.739c0,6.92-7.242,12.53-16.175,12.53H397.507c-8.933,0-16.175-5.61-16.175-12.53l0,0
				c0-6.92,7.242-12.53,16.175-12.53h663.091C1069.531,697.209,1076.772,702.819,1076.772,709.739L1076.772,709.739z"/>
		</g>
		<path fill="#42CC1B" d="M697.714,415.356c0,0-84.382-46.625-241.382,24.375c0,0-58,19.042-141-15.979
			c0,0,97,99.979,199.251,36.442C514.583,460.194,603.644,401.731,697.714,415.356z"/>
	</g>
	<g>
		<path fill="#111111" d="M1232.815,654.669c0,0,44.23-55.744,13.23-173.341c0,0-34.5-129.097-92-186.597c0,0-20.818-0.683-37,8.393
			C1117.046,303.124,1263.585,413.608,1232.815,654.669z"/>
		<path fill="#0C0C0C" d="M1232.815,654.669c4.697-6.606,8.191-13.977,11.178-21.477c2.985-7.516,5.333-15.274,7.146-23.148
			c1.821-7.873,3.116-15.862,3.966-23.893c0.873-8.031,1.232-16.112,1.214-24.185c0.052-4.038-0.151-8.073-0.252-12.108
			l-0.371-6.045l-0.196-3.021l-0.284-3.015l-0.576-6.028l-0.757-6.009l-0.378-3.004l-0.469-2.992l-0.943-5.982
			c-0.714-3.973-1.458-7.943-2.258-11.9l-1.307-5.914c-0.432-1.972-0.859-3.945-1.377-5.897l-1.482-5.873
			c-0.479-1.965-1-3.894-1.572-5.838c-1.121-3.88-2.292-7.749-3.496-11.608c-4.817-15.436-10.189-30.698-15.942-45.805
			c-5.789-15.094-12.062-30.004-19.002-44.593c-6.946-14.581-14.534-28.865-23.121-42.516c-4.304-6.816-8.857-13.471-13.747-19.862
			c-4.892-6.386-10.129-12.502-15.793-18.179l1,0.434c-0.737-0.017-1.54-0.009-2.316,0.008c-0.782,0.018-1.567,0.047-2.351,0.089
			c-1.568,0.082-3.136,0.204-4.7,0.366c-3.126,0.334-6.24,0.788-9.309,1.441c-3.069,0.646-6.101,1.458-9.045,2.498
			c-2.949,1.024-5.802,2.289-8.515,3.786l0.165-2.448c3.256,2.542,6.253,5.206,9.242,7.948c2.975,2.739,5.863,5.564,8.695,8.443
			c5.65,5.77,11.061,11.767,16.224,17.967c10.346,12.385,19.738,25.547,28.237,39.25c8.493,13.709,16.047,27.992,22.675,42.687
			c3.337,7.338,6.336,14.825,9.158,22.372c2.809,7.552,5.412,15.182,7.721,22.9c2.317,7.714,4.465,15.482,6.292,23.326
			c1.859,7.835,3.512,15.72,4.881,23.653c1.428,7.923,2.549,15.898,3.513,23.888c0.448,3.999,0.913,7.996,1.239,12.007
			c0.4,4.004,0.638,8.021,0.903,12.035c0.272,4.014,0.389,8.036,0.583,12.053c0.073,4.022,0.238,8.041,0.234,12.062
			c0.005,4.021,0.049,8.042-0.063,12.062l-0.115,6.029l-0.241,6.025c-0.308,8.033-0.875,16.054-1.573,24.06
			c-0.348,4.003-0.821,7.994-1.225,11.991L1232.815,654.669z M1232.815,654.669l1.282-11.981c0.334-4.002,0.737-7.998,1.014-12.004
			c0.569-8.01,1.047-16.026,1.245-24.051l0.162-6.018l0.036-6.02c0.06-4.013-0.036-8.025-0.094-12.037
			c-0.049-4.012-0.266-8.02-0.391-12.029c-0.246-4.004-0.415-8.012-0.739-12.01c-2.303-31.994-8.009-63.759-17.551-94.356
			c-2.357-7.656-5.005-15.22-7.856-22.703c-2.853-7.482-5.93-14.878-9.245-22.166c-6.622-14.577-14.16-28.739-22.625-42.324
			c-8.471-13.578-17.826-26.613-28.114-38.863c-5.134-6.132-10.511-12.06-16.117-17.754c-2.809-2.84-5.673-5.627-8.615-8.321
			c-2.935-2.682-5.96-5.347-9.043-7.741l-1.768-1.373l1.934-1.075c2.877-1.599,5.882-2.938,8.966-4.019
			c3.079-1.096,6.23-1.949,9.41-2.627c3.18-0.682,6.393-1.172,9.622-1.5c1.614-0.163,3.232-0.285,4.855-0.365
			c0.811-0.041,1.623-0.069,2.438-0.085c0.821-0.015,1.616-0.022,2.476-0.001l0.585,0.015l0.416,0.419
			c5.762,5.806,11.063,12.033,16.001,18.516c4.936,6.487,9.517,13.224,13.842,20.114c8.626,13.797,16.221,28.191,23.163,42.866
			c6.936,14.683,13.193,29.67,18.962,44.834c5.772,15.164,10.97,30.54,15.692,46.059c1.177,3.881,2.32,7.773,3.415,11.682
			c0.556,1.946,1.074,3.931,1.538,5.904l1.442,5.917c0.504,1.967,0.918,3.955,1.336,5.942l1.265,5.958
			c0.771,3.986,1.488,7.984,2.172,11.985l0.899,6.024l0.447,3.012l0.356,3.025l0.711,6.049l0.53,6.068l0.26,3.034l0.172,3.041
			l0.323,6.082c0.074,4.061,0.239,8.119,0.124,12.181c-0.091,8.119-0.561,16.239-1.547,24.299
			c-0.963,8.061-2.372,16.069-4.307,23.951c-1.929,7.881-4.381,15.64-7.491,23.132
			C1241.269,640.824,1237.632,648.147,1232.815,654.669z"/>
	</g>
	<path fill="#D66A18" stroke="#D67003" stroke-miterlimit="10" d="M1276.753,377.439c-41.874,12.959-71.812-3.391-81.048-29.172
		c-13.027-36.363,23.927-65.318,50.34-75.66"/>
	<polygon fill="#0C0C0C" stroke="#050505" stroke-miterlimit="10" points="1292.379,377.439 1276.753,377.439 1245.5,273.026 
		1259.859,267.221 	"/>
	<path stroke="#000000" stroke-miterlimit="10" d="M1292.376,682.871c-42.77,0-77.44,34.67-77.44,77.44
		c0,42.77,34.67,77.45,77.44,77.45c42.77,0,77.45-34.68,77.45-77.45C1369.826,717.541,1335.146,682.871,1292.376,682.871z
		 M1290.755,789.171c-17.04,0-30.85-13.82-30.85-30.86c0-17.04,13.81-30.85,30.85-30.85s30.85,13.81,30.85,30.85
		C1321.606,775.351,1307.796,789.171,1290.755,789.171z"/>
	<path fill="#D66A18" stroke="#D67003" stroke-miterlimit="10" d="M1105.011,767.481c0,0,108.205-7.63,158.126-129.092
		c0,0,90.366,47.235,103.195,60.915c0,0,5.674,7.374,2.78,17.287C1369.112,716.59,1356.997,761.558,1105.011,767.481z"/>
	<path fill="none" stroke="#000000" stroke-miterlimit="10" d="M1262.243,639.064"/>
	<path fill="#0A0A0A" stroke="#070707" stroke-miterlimit="10" d="M1263.046,639.064c0,0,4.667-4,8.667-8s110.667,62,106,62
		c0,0,15.633,15.045-7.705,25.667C1354.84,725.634,1407.712,702.398,1263.046,639.064z"/>
	<path stroke="#000000" stroke-miterlimit="10" d="M625.026,770.271c0,44.17-35.81,68.98-79.98,68.98s-79.98-24.81-79.98-68.98
		h49.98c0,15.46,12.54,28,28,28s28-12.54,28-28H625.026z"/>
	<path fill="#F9F4F4" stroke="#EFEDED" stroke-miterlimit="10" d="M571.046,770.271h-56c0-15.46,12.54-28,28-28
		S571.046,754.811,571.046,770.271z"/>
	<path fill="#D66A18" stroke="#D67003" stroke-miterlimit="10" d="M1078.032,768.338H391.205c-8.215,0-14.875-6.497-14.875-14.511
		l0,0c0-8.014,6.66-14.511,14.875-14.511l691.841-4.23c0,0,65-20.354,78.853-91.095c0,0,23.147-220.238-57.853-284.975
		c0,0-51.66-10.008-94.747,7.006c0,0-9.233-7.006,0-16.013c9.233-9.007,105.153-53.542,112.847-46.036
		c0,0,134.168,109.303,113.428,323.255C1235.573,627.227,1249.422,727.306,1078.032,768.338z"/>
</g>
</svg>
