<?xml version="1.0" encoding="utf-8"?>
<!-- Generator: Adobe Illustrator 17.0.0, SVG Export Plug-In . SVG Version: 6.00 Build 0)  -->
<!DOCTYPE svg PUBLIC "-//W3C//DTD SVG 1.1//EN" "http://www.w3.org/Graphics/SVG/1.1/DTD/svg11.dtd" [
	<!ENTITY ns_extend "http://ns.adobe.com/Extensibility/1.0/">
	<!ENTITY ns_ai "http://ns.adobe.com/AdobeIllustrator/10.0/">
	<!ENTITY ns_graphs "http://ns.adobe.com/Graphs/1.0/">
	<!ENTITY ns_vars "http://ns.adobe.com/Variables/1.0/">
	<!ENTITY ns_imrep "http://ns.adobe.com/ImageReplacement/1.0/">
	<!ENTITY ns_sfw "http://ns.adobe.com/SaveForWeb/1.0/">
	<!ENTITY ns_custom "http://ns.adobe.com/GenericCustomNamespace/1.0/">
	<!ENTITY ns_adobe_xpath "http://ns.adobe.com/XPath/1.0/">
]>
<svg version="1.1" id="Layer_1" xmlns:x="&ns_extend;" xmlns:i="&ns_ai;" xmlns:graph="&ns_graphs;"
	 xmlns="http://www.w3.org/2000/svg" xmlns:xlink="http://www.w3.org/1999/xlink" x="0px" y="0px" width="720px" height="720px"
	 viewBox="0 0 720 720" enable-background="new 0 0 720 720" xml:space="preserve">
<metadata>
	<sfw  xmlns="&ns_sfw;">
		<slices></slices>
		<sliceSourceBounds  width="791.671" height="675.683" x="-115.5" y="-702.618" bottomLeftOrigin="true"></sliceSourceBounds>
		<optimizationSettings>
			<targetSettings  fileFormat="PNG24Format" targetSettingsID="0">
				<PNG24Format  transparency="true" interlaced="false" matteColor="#FFFFFF" noMatteColor="false" filtered="false">
					</PNG24Format>
			</targetSettings>
		</optimizationSettings>
	</sfw>
</metadata>
<image display="none" overflow="visible" opacity="0.7" width="220" height="229" xlink:href="tiger.jpg"  transform="matrix(2.9819 0 0 2.9506 20.1463 26.935)">
</image>
<linearGradient id="SVGID_1_" gradientUnits="userSpaceOnUse" x1="92.9923" y1="363.4115" x2="665.0048" y2="363.4115">
	<stop  offset="0.0323" style="stop-color:#FDED0C"/>
	<stop  offset="0.2527" style="stop-color:#FF9F07"/>
	<stop  offset="0.2939" style="stop-color:#FA991D"/>
	<stop  offset="0.3432" style="stop-color:#F69430"/>
	<stop  offset="0.394" style="stop-color:#F4913B"/>
	<stop  offset="0.4481" style="stop-color:#F3903F"/>
	<stop  offset="0.7634" style="stop-color:#ED683C"/>
	<stop  offset="0.9732" style="stop-color:#E93E3A"/>
</linearGradient>
<path fill="url(#SVGID_1_)" stroke="#231F20" stroke-width="5" stroke-miterlimit="10" d="M201.917,215.833l-18.292-1.583
	c0,0-19.146-8.458-10.979-16.625c8.167-8.167,127.344-80.646,165.01-64.646c0,0,126.339-11.99,167.005,5.344
	c0,0,3.336,1.339,3.336,4.005c0,0,18.003-1.371,21.668-0.664c0,0,82.644-23.401,93.334-12.711
	c10.69,10.69-29.333,102.713-59.666,107.046c0,0,23.833-4.5,19.333,0s-39,18.333-54,12.333c0,0,68,51.333,57.333,62
	c0,0-29.5-11.833-32.333-14.667c-2.833-2.833,17,41.333,17,51.667c0,0,0.167,84.167-5.667,90c0,0-29-53.667-24-55.333
	c0,0-3,115-26,143.667c0,0-28.667-40.667-37-37.333c0,0-50.333-22.667-59.667-18.667c0,0-31-3.333-46.667,0.333
	c0,0-58.333,11.667-72.667,53.333c0,0-40.667,69.333-37,77.333c0,0-41-17.667-48-41.667c0,0,6.75,17.667,4.417,20
	c-2.333,2.333-62.917-67.333-60.917-82v-16c0,0,10.333-16,34.667-19.333c0,0,99.657-36.402,98.25-58.667
	c0,0,1.924-17.794-0.476-20.454c-2.039-2.26-12.337-25.213-41.337-26.88c0,0-114.524-2.002-123.969,7.443
	c0,0-31.318-10.776-31.318-36.443c0,0-10.326-9.667-13.659-32c0,0,35.671-40,43.671-36.333c0,0-3.331-5.333,0.002-8.667
	c3.333-3.333,23.668-22,49.001-19.333c0,0,6.885-13.631,11.292-14.667"/>
<linearGradient id="SVGID_2_" gradientUnits="userSpaceOnUse" x1="78.5574" y1="294.8701" x2="150.0486" y2="294.8701">
	<stop  offset="0.0598" style="stop-color:#77361E"/>
	<stop  offset="0.1505" style="stop-color:#77361E"/>
	<stop  offset="0.3763" style="stop-color:#FF9F07"/>
	<stop  offset="0.3915" style="stop-color:#FA991D"/>
	<stop  offset="0.4096" style="stop-color:#F69430"/>
	<stop  offset="0.4282" style="stop-color:#F4913B"/>
	<stop  offset="0.4481" style="stop-color:#F3903F"/>
	<stop  offset="0.7634" style="stop-color:#ED683C"/>
	<stop  offset="0.9732" style="stop-color:#E93E3A"/>
</linearGradient>
<path fill="url(#SVGID_2_)" stroke="#231F20" stroke-width="2" stroke-miterlimit="10" d="M83.416,308.926l-2.192-15.986
	c0,0,38.318-28.031,71.491-27.53c0,0-14.302,5.424-25.339,13.09c-10.001,6.946-16.937,16.118-15.237,17.646
	c0,0-7.002-4.534-11.816,0.369c0,0-3.406,7.702-1.573,11.975c0,0,1.732,2.278,3.731,2.215c2.999-0.094,0.223,7.122,0.223,7.122
	s-7.64,8.168-9.704,6.202C90.01,321.182,86.651,316.367,83.416,308.926z"/>
<g>
	<path fill="#231F20" d="M121.421,256.381c0,0,0.66-0.376,1.848-0.936c1.188-0.56,2.901-1.326,5.001-2.098
		c4.184-1.607,9.922-3.273,15.857-4.229c2.968-0.466,5.986-0.758,8.876-0.714c1.442,0.013,2.86,0.142,4.216,0.396
		c0.651,0.113,1.396,0.316,1.934,0.498c0.561,0.179,1.102,0.352,1.622,0.518c0.516,0.161,1.02,0.289,1.458,0.411l0.301,0.073
		l0.103,0.024c0.016,0.012,0.041,0.001-0.083,0.053c-0.049,0.047-0.234,0.057-0.405,0.459c-0.056,0.182-0.045,0.335-0.003,0.464
		c0.015,0.062,0.069,0.153,0.087,0.174c0.095,0.112,0.072,0.055,0.072,0.055c-0.028-0.042-0.101-0.108-0.175-0.167
		c-0.647-0.486-1.347-0.924-1.889-1.263C159.134,249.4,158.5,249,158.5,249s0.751,0.091,2.04,0.379
		c0.648,0.162,1.413,0.302,2.344,0.685c0.121,0.053,0.244,0.107,0.4,0.206c0.09,0.071,0.161,0.09,0.321,0.3
		c0.035,0.045,0.098,0.165,0.127,0.253c0.043,0.157,0.068,0.343-0.004,0.551c-0.187,0.462-0.435,0.5-0.537,0.569
		c-0.236,0.094-0.332,0.096-0.437,0.116l-0.263,0.029c-0.146,0.007-0.294,0.014-0.444,0.021c-0.567,0.018-1.111-0.035-1.684-0.075
		c-0.566-0.054-1.155-0.11-1.765-0.169c-0.631-0.056-1.097-0.116-1.712-0.112c-1.167-0.019-2.433,0.045-3.759,0.173
		c-1.324,0.132-2.699,0.294-4.104,0.49c-1.403,0.208-2.835,0.405-4.267,0.65c-5.735,0.918-11.517,1.944-15.924,2.507
		c-2.196,0.312-4.049,0.511-5.352,0.639C122.179,256.341,121.421,256.381,121.421,256.381z"/>
</g>
<g>
	<path fill="#231F20" d="M172.5,230.819c0,0,0.955-0.105,2.316-0.077c1.367,0,3.144,0.141,4.889,0.293
		c1.746,0.159,3.461,0.323,4.725,0.293c0.314-0.017,0.606-0.032,0.856-0.076c0.254-0.041,0.473-0.095,0.652-0.159
		c0.176-0.068,0.326-0.125,0.413-0.187c0.097-0.056,0.148-0.086,0.148-0.086c-0.017-0.016-0.044,0.247-0.323,0.592
		c-0.137,0.169-0.329,0.374-0.584,0.541c-0.25,0.185-0.554,0.355-0.899,0.493c-1.382,0.606-3.322,0.747-5.166,0.581
		c-1.854-0.169-3.644-0.637-4.934-1.163C173.297,231.365,172.5,230.819,172.5,230.819z"/>
</g>
<path fill="#231F20" stroke="#231F20" stroke-width="2" stroke-miterlimit="10" d="M238.292,159.08c0,0,151.208-4.58,169.208,18.42
	c0,0,6.93-4-55.285-33c0,0-22.903-8.542-14.559-11.521C337.656,132.979,296.721,125.866,238.292,159.08z"/>
<path fill="#3A3A3A" d="M260,156c0,0,54.5-20.92,70-13.42c0,0-55,13.42-46.5,13.42H260z"/>
<path fill="#231F20" stroke="#231F20" stroke-width="2" stroke-miterlimit="10" d="M366,132.339c0,0,40,7.161,63.5,37.661
	c0,0,0.502-29.613-3.999-41.056C425.501,128.944,380,130.179,366,132.339z"/>
<g>
	<path fill="#231F20" d="M288.764,409.071c0,0,0.064-0.864,0.184-2.485c0.1-1.621,0.34-3.998,0.48-7.022
		c0.081-1.51,0.171-3.182,0.269-5.002c0.054-1.822,0.112-3.792,0.175-5.897c0.065-2.103,0.021-4.344,0.037-6.701
		c-0.015-2.358-0.102-4.834-0.161-7.416c-0.074-1.289-0.149-2.605-0.226-3.946c-0.038-0.67-0.077-1.346-0.116-2.029
		c-0.062-0.68-0.124-1.367-0.187-2.059c-0.125-1.384-0.252-2.79-0.381-4.219c-0.172-1.423-0.346-2.867-0.523-4.332
		c-0.794-5.843-1.958-11.949-3.598-18.138c-1.642-6.188-3.894-12.415-6.713-18.478c-1.387-3.044-3.025-5.989-4.734-8.901
		c-1.802-2.853-3.656-5.695-5.773-8.339c-4.095-5.394-8.911-10.216-14.078-14.431c-2.616-2.069-5.295-4.02-8.039-5.81
		c-2.766-1.754-5.555-3.411-8.408-4.844c-2.844-1.447-5.704-2.752-8.558-3.91c-2.847-1.173-5.686-2.203-8.489-3.089
		c-5.601-1.793-11.033-3.089-16.092-4.067c-5.069-0.932-9.764-1.578-13.947-1.971c-4.183-0.394-7.849-0.589-10.872-0.668
		c-6.048-0.16-9.514,0.093-9.514,0.093s0.856-0.14,2.472-0.326c1.617-0.176,3.994-0.431,7.033-0.562
		c3.038-0.139,6.738-0.228,10.98-0.064c4.243,0.137,9.031,0.502,14.221,1.232c5.185,0.742,10.787,1.803,16.581,3.474
		c5.802,1.627,11.819,3.807,17.758,6.706c5.938,2.891,11.834,6.449,17.289,10.791c5.426,4.365,10.507,9.378,14.826,14.999
		c2.195,2.784,4.116,5.765,5.975,8.758c1.764,3.049,3.448,6.132,4.87,9.304c2.917,6.314,5.03,12.837,6.615,19.227
		c1.594,6.395,2.537,12.693,3.15,18.67c0.637,5.981,0.733,11.661,0.764,16.887c-0.069,2.613-0.074,5.118-0.203,7.494
		c-0.157,2.375-0.247,4.629-0.438,6.74c-0.195,2.109-0.378,4.082-0.547,5.907c-0.229,1.819-0.44,3.489-0.63,4.998
		c-0.096,0.753-0.186,1.466-0.272,2.137c-0.108,0.667-0.208,1.292-0.302,1.874c-0.189,1.163-0.349,2.152-0.479,2.955
		C288.903,408.216,288.764,409.071,288.764,409.071z"/>
</g>
<g>
	<path fill="#231F20" d="M263,294.652C206,287.304,169.5,306,169.5,306s95.288-18.493,111.644,16.004L263,294.652z"/>
	<path fill="#231F20" d="M263,294.652l-5.938-0.499l-2.969-0.254l-1.484-0.132l-1.487-0.062l-5.944-0.235
		c-0.99-0.031-1.979-0.098-2.97-0.099l-2.974,0.025l-5.945,0.049l-5.936,0.298l-2.967,0.145l-2.957,0.277
		c-1.97,0.197-3.945,0.344-5.91,0.58l-5.882,0.807c-1.962,0.254-3.899,0.672-5.849,1c-1.953,0.318-3.882,0.753-5.811,1.184
		l-2.895,0.637l-2.87,0.739l-2.872,0.728l-2.844,0.83c-1.904,0.527-3.774,1.158-5.648,1.776c-0.942,0.294-1.86,0.654-2.788,0.987
		c-0.927,0.336-1.854,0.671-2.763,1.047c-1.826,0.716-3.658,1.498-5.38,2.339l-0.592-1.716c4.893-0.924,9.779-1.67,14.693-2.336
		c4.911-0.657,9.835-1.221,14.773-1.65c9.877-0.818,19.803-1.21,29.728-0.867c4.961,0.176,9.921,0.547,14.854,1.191
		c4.93,0.655,9.84,1.592,14.62,3.053c4.773,1.441,9.458,3.362,13.652,6.154c2.091,1.393,4.049,3.009,5.754,4.873
		c1.705,1.861,3.146,3.974,4.209,6.266l-0.889,0.502l-8.879-13.804L263,294.652z M263,294.652l9.305,13.521l9.266,13.547
		l-0.889,0.502c-2.109-4.372-5.66-7.902-9.742-10.5c-4.092-2.622-8.686-4.416-13.383-5.742c-4.705-1.328-9.543-2.189-14.405-2.826
		c-4.87-0.607-9.777-0.946-14.691-1.09c-9.832-0.283-19.687,0.165-29.497,1.035c-4.907,0.426-9.808,0.937-14.694,1.568
		c-4.882,0.632-9.771,1.35-14.594,2.232l-6.688,1.222l6.096-2.938c1.852-0.893,3.683-1.657,5.557-2.381
		c0.929-0.378,1.871-0.713,2.813-1.047c0.943-0.332,1.878-0.691,2.833-0.984c1.902-0.615,3.8-1.243,5.728-1.764l2.881-0.822
		l2.907-0.719l2.91-0.706l2.934-0.592c1.955-0.4,3.909-0.803,5.883-1.09c1.972-0.296,3.931-0.682,5.913-0.903l5.938-0.708
		c1.982-0.203,3.973-0.316,5.958-0.479l2.979-0.226l2.986-0.093l5.971-0.171l5.971,0.124l2.983,0.062
		c0.994,0.03,1.987,0.126,2.98,0.186l5.954,0.409l1.487,0.106l1.479,0.175l2.958,0.361L263,294.652z"/>
</g>
<g>
	<path fill="#231F20" d="M194,279c0,0,0.722-0.577,2.116-1.374c1.388-0.808,3.449-1.833,6.048-2.779
		c1.3-0.467,2.732-0.916,4.275-1.298c1.54-0.398,3.193-0.701,4.917-0.953c1.727-0.218,3.526-0.397,5.364-0.41
		c1.837-0.061,3.707,0.062,5.572,0.22c1.859,0.225,3.716,0.504,5.508,0.947c0.896,0.222,1.788,0.425,2.645,0.721
		c0.862,0.273,1.717,0.526,2.528,0.868c1.644,0.609,3.18,1.335,4.593,2.083c0.696,0.398,1.389,0.748,2.023,1.152
		c0.627,0.411,1.234,0.807,1.816,1.188c1.128,0.813,2.135,1.586,2.976,2.329c0.841,0.745,1.566,1.391,2.113,1.983
		c1.104,1.17,1.683,1.873,1.683,1.873s-0.856-0.365-2.262-1.064c-0.694-0.364-1.6-0.7-2.562-1.179
		c-0.481-0.241-1.023-0.443-1.582-0.67c-0.563-0.219-1.126-0.497-1.744-0.723c-1.227-0.469-2.542-0.978-3.956-1.434
		c-1.407-0.469-2.897-0.922-4.453-1.316c-1.548-0.417-3.168-0.751-4.815-1.064c-1.65-0.299-3.336-0.541-5.03-0.722
		c-1.696-0.169-3.398-0.299-5.083-0.349c-1.684-0.07-3.348-0.048-4.965-0.027c-1.614,0.065-3.186,0.116-4.675,0.247
		c-1.492,0.108-2.907,0.251-4.217,0.404c-2.623,0.293-4.825,0.64-6.377,0.903c-0.779,0.139-1.391,0.247-1.808,0.322
		C194.224,278.957,194,279,194,279z"/>
</g>
<g>
	<path fill="#231F20" d="M166.5,266.909c0,0,0.229-0.178,0.7-0.463c0.47-0.288,1.17-0.695,2.106-1.123
		c0.472-0.209,0.994-0.44,1.563-0.692c0.579-0.223,1.215-0.437,1.895-0.679c0.677-0.261,1.421-0.42,2.198-0.654
		c0.778-0.228,1.606-0.429,2.479-0.578c0.871-0.161,1.78-0.352,2.727-0.508c0.948-0.117,1.934-0.204,2.947-0.311
		c1.015-0.133,2.057-0.144,3.126-0.182c1.067-0.03,2.164-0.081,3.272-0.044c1.108,0.061,2.234,0.123,3.374,0.186
		c0.57,0.038,1.146,0.058,1.72,0.113c0.571,0.078,1.145,0.155,1.721,0.234c1.152,0.161,2.314,0.324,3.48,0.487
		c1.165,0.171,2.305,0.475,3.461,0.707c1.15,0.261,2.3,0.521,3.445,0.781c1.132,0.305,2.241,0.672,3.349,1.004
		c1.104,0.345,2.2,0.688,3.282,1.026c1.079,0.346,2.106,0.792,3.131,1.19c2.035,0.83,4.028,1.57,5.831,2.463
		c1.813,0.87,3.504,1.737,5.058,2.541c0.772,0.413,1.538,0.752,2.216,1.177c0.681,0.418,1.326,0.814,1.933,1.186
		c1.217,0.735,2.256,1.411,3.114,1.96c1.714,1.102,2.666,1.77,2.666,1.77s-1.118-0.361-3.026-1.061
		c-0.953-0.353-2.112-0.77-3.418-1.29c-1.31-0.513-2.779-1.101-4.42-1.644c-1.633-0.561-3.396-1.173-5.235-1.868
		c-0.914-0.365-1.889-0.636-2.876-0.937c-0.99-0.291-1.987-0.627-3.007-0.947c-1.024-0.306-2.04-0.698-3.102-0.977
		c-1.06-0.284-2.132-0.571-3.213-0.86c-1.078-0.295-2.165-0.592-3.256-0.89c-1.103-0.238-2.21-0.478-3.317-0.717
		c-1.107-0.234-2.203-0.541-3.315-0.714c-1.11-0.185-2.216-0.368-3.314-0.551c-2.189-0.443-4.371-0.541-6.474-0.838
		c-1.053-0.118-2.091-0.115-3.108-0.205c-1.017-0.067-2.017-0.159-2.984-0.128c-0.97-0.003-1.914,0.012-2.833-0.007
		c-0.913,0.022-1.794,0.082-2.645,0.119c-0.855,0.017-1.661,0.121-2.433,0.202c-0.77,0.089-1.519,0.113-2.197,0.246
		c-0.685,0.109-1.325,0.223-1.927,0.304c-0.592,0.121-1.135,0.233-1.626,0.333c-0.976,0.227-1.755,0.414-2.266,0.582
		C166.777,266.807,166.5,266.909,166.5,266.909z"/>
</g>
<g>
	<path fill="#231F20" d="M207.5,317.5c0,0,0.368-0.073,1.062-0.174c0.693-0.088,1.713-0.258,3.011-0.367
		c1.299-0.126,2.88-0.273,4.694-0.358c1.815-0.094,3.862-0.138,6.099-0.135c2.234,0.023,4.658,0.09,7.217,0.264
		c2.559,0.173,5.257,0.418,8.037,0.804c2.783,0.359,5.648,0.86,8.545,1.465c1.443,0.33,2.906,0.638,4.359,1.022
		c1.448,0.412,2.913,0.767,4.357,1.232c1.443,0.464,2.886,0.919,4.305,1.458c0.712,0.26,1.423,0.514,2.124,0.792
		c0.696,0.297,1.391,0.593,2.083,0.888c2.773,1.159,5.408,2.578,7.894,4.05c1.218,0.793,2.426,1.555,3.554,2.385
		c0.554,0.434,1.101,0.863,1.643,1.287c0.541,0.42,1.076,0.833,1.557,1.313c0.972,0.939,1.971,1.765,2.782,2.761
		c0.837,0.958,1.661,1.852,2.308,2.854c0.335,0.483,0.663,0.955,0.983,1.417c0.326,0.453,0.558,0.967,0.818,1.433
		c0.491,0.956,1.016,1.81,1.305,2.731c0.315,0.9,0.677,1.7,0.871,2.493c0.169,0.793,0.324,1.522,0.465,2.18
		c0.061,0.327,0.148,0.627,0.176,0.923c0.017,0.298,0.033,0.577,0.049,0.836c0.027,0.513,0.049,0.949,0.068,1.302
		c0.023,0.698,0.036,1.07,0.036,1.07s-0.15-0.344-0.43-0.99c-0.133-0.318-0.298-0.711-0.492-1.172
		c-0.189-0.458-0.395-0.983-0.728-1.531c-0.304-0.549-0.64-1.156-1.006-1.817c-0.395-0.638-0.895-1.286-1.377-1.988
		c-0.451-0.72-1.096-1.382-1.715-2.099c-0.328-0.346-0.596-0.744-0.972-1.081c-0.363-0.341-0.735-0.691-1.114-1.047
		c-0.715-0.74-1.582-1.404-2.456-2.095c-0.833-0.728-1.84-1.339-2.805-2.019c-0.961-0.685-2.066-1.261-3.119-1.918
		c-1.107-0.594-2.24-1.201-3.401-1.793c-1.212-0.522-2.377-1.151-3.64-1.658c-1.262-0.506-2.507-1.068-3.82-1.54
		c-0.65-0.245-1.303-0.492-1.957-0.739c-0.665-0.228-1.332-0.457-2-0.686c-1.324-0.486-2.692-0.888-4.051-1.313
		c-2.714-0.867-5.482-1.602-8.209-2.341c-1.373-0.345-2.736-0.687-4.082-1.025c-1.355-0.321-2.693-0.637-4.01-0.949
		c-2.639-0.613-5.207-1.176-7.652-1.694c-2.453-0.514-4.773-0.999-6.914-1.448c-4.323-0.886-7.926-1.624-10.448-2.14
		C208.965,317.823,207.5,317.5,207.5,317.5z"/>
</g>
<path fill="#231F20" stroke="#231F20" stroke-width="2" stroke-miterlimit="10" d="M238.28,208.32c-6.57,1.57-11.47,2.32-13.28,1.68
	c0,0,3.11,21.21-2.68,27c0,0,18.68-11.75,18.68,0c0,0-24.76,22.01-26,27.91c0,0,61.93-71.91,137.22-76.41c0,0-0.36-7.5-42.86-3
	c0,0-23.36,8.35-45.36,15.34v0.01c-9,2.99-18.61,5.73-25.85,7.46C238.15,208.31,238.29,208.31,238.28,208.32"/>
<path fill="#0F6AEF" stroke="#231F20" stroke-width="2" stroke-miterlimit="10" d="M241,224.49c-7.2,0-2.87-15.62-2.72-16.17
	c0.01-0.01,0.01-0.01,0.01-0.01c7.24-1.73,16.53-4.47,25.99-7.46C268.22,214.03,248.33,224.49,241,224.49z"/>
<g>
	<path fill="#231F20" d="M247.175,205.967c0,0-5.893,7.786-3.207,13.052c0.862,1.69-3.718-5.527-3.163-10.368L247.175,205.967z"/>
	<path fill="#231F20" d="M248.076,205.604l-0.502,0.664c-0.619,0.819-1.193,1.715-1.709,2.623c-0.515,0.913-0.976,1.857-1.354,2.831
		c-0.745,1.931-1.203,4.061-0.699,6.053c0.059,0.247,0.145,0.488,0.236,0.725l0.152,0.35l0.088,0.189
		c0.016,0.04,0.028,0.058,0.052,0.137c0.005,0.026,0.002-0.014,0.012,0.066c0.003,0.038-0.003,0.079-0.015,0.115
		c-0.012,0.004,0.006,0.112-0.223,0.185c-0.234-0.01-0.194-0.061-0.205-0.048l-0.027-0.021l-0.035-0.035l-0.047-0.061
		c-0.317-0.489-0.545-0.953-0.791-1.44c-0.475-0.967-0.899-1.956-1.264-2.968c-0.364-1.012-0.671-2.047-0.875-3.106
		c-0.201-1.057-0.303-2.146-0.169-3.225l0.008-0.062l0.056-0.023l6.41-2.587L248.076,205.604z M246.38,206.317l-5.533,2.431
		l0.063-0.085c-0.172,2.11,0.458,4.201,1.214,6.163c0.39,0.985,0.837,1.948,1.333,2.882c0.247,0.459,0.512,0.945,0.788,1.343
		l0.014,0.018c0.004,0.005-0.005-0.006-0.018-0.017l-0.018-0.013c-0.008,0.016,0.036-0.032-0.194-0.044
		c-0.224,0.074-0.203,0.182-0.216,0.18c-0.012,0.032-0.017,0.069-0.015,0.103l0.006,0.042c0.005,0.016-0.012-0.027-0.023-0.048
		l-0.086-0.171l-0.179-0.379c-0.108-0.257-0.21-0.519-0.284-0.788c-0.619-2.175-0.184-4.453,0.527-6.49
		c0.363-1.029,0.811-2.022,1.315-2.984C245.467,207.718,245.917,207.021,246.38,206.317z"/>
</g>
<path fill="#231F20" stroke="#231F20" stroke-miterlimit="10" d="M437.521,129.08c0,0,49.479,27.42,42.979,63.92
	c0,0,15.181-39.858,10.091-58.929C490.591,134.071,449.541,129.217,437.521,129.08z"/>
<path fill="#231F20" stroke="#231F20" stroke-miterlimit="10" d="M340.5,417.5c0,0,0.403-0.221,1.148-0.648
	c0.443-0.254,1.008-0.581,1.68-0.979c14.402-8.506,69.506-44.874,64.402-91.588c0,0-0.73-40.786-100.73-40.786
	c0,0,79.333,8.333,80.667,55.5c1.333,47.167-38.722,72.075-43.555,76.408"/>
<path fill="#231F20" stroke="#231F20" stroke-miterlimit="10" d="M314,256.381c0,0,136,21.119,130.5,79.082
	c0,0-5,32.657-46.742,58.036c0,0-59.258,42-64.758,62.5c0,0,55.5-38.5,94-53c0,0,76-32.428,86.5-78.714c0,0,24-61.351-70.5-118.319
	c0,0,36,45.667,36,56.35c0,0,12.5,38.183-17.5,27.183C461.5,289.5,383.5,237.262,314,256.381"/>
<path fill="#231F20" stroke="#231F20" stroke-miterlimit="10" d="M528,277.5c0,0,15,67-27.5,105c-27.232,26.568-57.335,33.667-79,35
	c0,0,80.5,3.5,103-40.5c0,0,23.995-32.71,3.995-96.927"/>
<g>
	<linearGradient id="SVGID_3_" gradientUnits="userSpaceOnUse" x1="124.8104" y1="379.8866" x2="227.7138" y2="379.8866">
		<stop  offset="0" style="stop-color:#FFD26A"/>
		<stop  offset="0.0306" style="stop-color:#FFE26F"/>
		<stop  offset="0.0668" style="stop-color:#FFED73"/>
		<stop  offset="0.1055" style="stop-color:#FFF174"/>
		<stop  offset="0.3946" style="stop-color:#F3903F"/>
		<stop  offset="0.4323" style="stop-color:#F2893E"/>
		<stop  offset="0.62" style="stop-color:#ED683C"/>
		<stop  offset="0.9732" style="stop-color:#E93E3A"/>
	</linearGradient>
	<path fill="url(#SVGID_3_)" d="M130.275,360.645c0,0,31.67,42.355,36.225,42.355c0,0-1.018-48.668-3.556-46.131
		C162.944,356.869,127.735,358.105,130.275,360.645z"/>
	<path fill="#231F20" d="M138.031,367.626c3.526,4.731,7.016,9.489,10.639,14.138c2.865,3.665,5.765,7.304,8.754,10.849
		c1.495,1.771,3.014,3.519,4.583,5.196c0.785,0.836,1.584,1.654,2.404,2.414c0.41,0.373,0.827,0.74,1.241,1.052
		c0.206,0.153,0.408,0.29,0.597,0.403c0.152,0.093,0.387,0.158,0.252,0.143l-1.178,1.203c-0.065-7.784-0.203-15.58-0.452-23.363
		c-0.128-3.892-0.284-7.783-0.519-11.664c-0.119-1.94-0.259-3.879-0.454-5.805c-0.099-0.962-0.213-1.923-0.367-2.866
		c-0.079-0.469-0.165-0.94-0.284-1.38c-0.059-0.217-0.129-0.434-0.206-0.595c-0.036-0.084-0.088-0.139-0.059-0.118
		c0.039,0.028,0.09,0.045,0.204,0.039c0.102-0.044,0.082-0.015,0.108-0.055l-0.331,0.144c-5.582,0.131-11.17,0.334-16.748,0.65
		c-2.789,0.161-5.577,0.351-8.356,0.623c-1.389,0.138-2.777,0.296-4.156,0.514c-0.689,0.111-1.376,0.238-2.051,0.412
		c-0.336,0.091-0.672,0.189-0.988,0.335c-0.155,0.076-0.312,0.159-0.428,0.288c-0.135,0.13-0.091,0.343,0.04,0.462L138.031,367.626z
		 M130.275,360.645c-0.135-0.112-0.188-0.333-0.052-0.471c0.116-0.136,0.272-0.225,0.427-0.306c0.315-0.157,0.65-0.265,0.985-0.367
		c0.673-0.195,1.359-0.342,2.046-0.474c1.376-0.26,2.762-0.459,4.15-0.638c2.776-0.354,5.562-0.626,8.349-0.869
		c5.576-0.48,11.157-0.847,16.749-1.142l-0.33,0.144c0.132-0.092,0.192-0.189,0.422-0.225c0.241-0.042,0.399,0.034,0.543,0.128
		c0.218,0.173,0.298,0.33,0.371,0.463c0.14,0.274,0.222,0.523,0.3,0.773c0.151,0.498,0.253,0.985,0.35,1.473
		c0.189,0.976,0.333,1.949,0.462,2.922c0.255,1.946,0.452,3.893,0.629,5.84c0.351,3.894,0.622,7.79,0.864,11.686
		c0.478,7.795,0.845,15.587,1.14,23.393l0.048,1.26l-1.226-0.057c-0.727-0.034-1.025-0.249-1.393-0.409
		c-0.319-0.175-0.603-0.359-0.871-0.546c-0.529-0.375-0.999-0.769-1.463-1.166c-0.915-0.8-1.771-1.627-2.608-2.467
		c-1.669-1.683-3.263-3.412-4.829-5.161c-3.13-3.499-6.153-7.073-9.141-10.673c-5.967-7.21-11.784-14.515-17.521-21.914
		L130.275,360.645z"/>
</g>
<path fill="none" stroke="#231F20" stroke-miterlimit="10" d="M-115.5,208.5"/>
<linearGradient id="SVGID_4_" gradientUnits="userSpaceOnUse" x1="165.5" y1="439.8763" x2="244.2923" y2="439.8763">
	<stop  offset="0.0106" style="stop-color:#FFF074"/>
	<stop  offset="0.0529" style="stop-color:#FFF174"/>
	<stop  offset="0.2136" style="stop-color:#FFD26A"/>
	<stop  offset="0.2166" style="stop-color:#FFD169"/>
	<stop  offset="0.4323" style="stop-color:#F2893E"/>
	<stop  offset="0.7721" style="stop-color:#ED683C"/>
	<stop  offset="0.8736" style="stop-color:#F3903F"/>
	<stop  offset="0.9732" style="stop-color:#E93E3A"/>
</linearGradient>
<path fill="url(#SVGID_4_)" stroke="#231F20" stroke-width="4" stroke-miterlimit="10" d="M188.952,462.253
	c0,0-27.854-22.504-29.452-44.753c0,0,66.585,28.472,78.792,25.486L188.952,462.253"/>
<path fill="#231F20" stroke="#231F20" stroke-width="2" stroke-miterlimit="10" d="M264.486,439.71c0,0,17.66-10.467,34.994-19.633
	c0,0-1.813,25.257-16.48,61.59c0,0,5.326-40.116-1.674-40.116C281.326,441.55,290.931,443.753,264.486,439.71z"/>
<path fill="#FFFFFF" stroke="#231F20" stroke-width="2" stroke-miterlimit="10" d="M536.119,187.77c0,0,10.575-34.228,61.712-27.446
	c0,0-3.793,44.14-44.228,48.475c0,0,4.581-14.369,11.811-13.83c0,0-17.645-2.068-21.675,4.902c0,0,13.754-22.192,25.976-16.329
	C570.057,183.706,555.359,175.166,536.119,187.77z"/>
</svg>
