<?xml version="1.0" encoding="utf-8"?>
<!-- Generator: Adobe Illustrator 17.0.0, SVG Export Plug-In . SVG Version: 6.00 Build 0)  -->
<!DOCTYPE svg PUBLIC "-//W3C//DTD SVG 1.1//EN" "http://www.w3.org/Graphics/SVG/1.1/DTD/svg11.dtd" [
	<!ENTITY ns_extend "http://ns.adobe.com/Extensibility/1.0/">
	<!ENTITY ns_ai "http://ns.adobe.com/AdobeIllustrator/10.0/">
	<!ENTITY ns_graphs "http://ns.adobe.com/Graphs/1.0/">
	<!ENTITY ns_vars "http://ns.adobe.com/Variables/1.0/">
	<!ENTITY ns_imrep "http://ns.adobe.com/ImageReplacement/1.0/">
	<!ENTITY ns_sfw "http://ns.adobe.com/SaveForWeb/1.0/">
	<!ENTITY ns_custom "http://ns.adobe.com/GenericCustomNamespace/1.0/">
	<!ENTITY ns_adobe_xpath "http://ns.adobe.com/XPath/1.0/">
]>
<svg version="1.1" id="Layer_1" xmlns:x="&ns_extend;" xmlns:i="&ns_ai;" xmlns:graph="&ns_graphs;"
	 xmlns="http://www.w3.org/2000/svg" xmlns:xlink="http://www.w3.org/1999/xlink" x="0px" y="0px" width="720px" height="720px"
	 viewBox="0 0 720 720" enable-background="new 0 0 720 720" xml:space="preserve">
<metadata>
	<sfw  xmlns="&ns_sfw;">
		<slices></slices>
		<sliceSourceBounds  height="722" width="836.5" y="-721" x="-115.5" bottomLeftOrigin="true"></sliceSourceBounds>
	</sfw>
</metadata>
<image display="none" overflow="visible" opacity="0.7" width="220" height="229" xlink:href="tiger.jpg"  transform="matrix(2.9819 0 0 2.9506 20.1463 26.935)">
</image>
<path fill="none" stroke="#231F20" stroke-miterlimit="10" d="M-115.5,208.5"/>
<g>
	<radialGradient id="SVGID_1_" cx="346" cy="360" r="361.1675" gradientUnits="userSpaceOnUse">
		<stop  offset="0" style="stop-color:#E0E1E2"/>
		<stop  offset="0.3777" style="stop-color:#E0E1E2"/>
		<stop  offset="1" style="stop-color:#A5A7AA"/>
	</radialGradient>
	<rect fill="url(#SVGID_1_)" stroke="#231F20" stroke-width="2" stroke-miterlimit="10" width="720" height="720"/>
	<g>
		<linearGradient id="SVGID_2_" gradientUnits="userSpaceOnUse" x1="100.9972" y1="360" x2="673.0092" y2="360">
			<stop  offset="0.0323" style="stop-color:#FDED0C"/>
			<stop  offset="0.2527" style="stop-color:#FF9F07"/>
			<stop  offset="0.2939" style="stop-color:#FA991D"/>
			<stop  offset="0.3432" style="stop-color:#F69430"/>
			<stop  offset="0.394" style="stop-color:#F4913B"/>
			<stop  offset="0.4481" style="stop-color:#F3903F"/>
			<stop  offset="0.7634" style="stop-color:#ED683C"/>
			<stop  offset="0.9732" style="stop-color:#E93E3A"/>
		</linearGradient>
		<path fill="url(#SVGID_2_)" stroke="#231F20" stroke-width="5" stroke-miterlimit="10" d="M594.004,306.918
			c0,0-29.5-11.83-32.33-14.66c-2.84-2.84,17,41.33,17,51.66c0,0,0.16,84.17-5.67,90c0,0-20.84-38.55-24.14-51.32
			c-0.78,20.56-5.42,114.19-25.86,139.66c0,0-28.67-40.67-37-37.34c0,0-50.33-22.66-59.67-18.66c0,0-31-3.34-46.66,0.33
			c0,0-52.11,10.42-69.92,46.74c-1.05,2.11-1.17,2.01-1.96,4.3c0,0-41.46,71.63-37.79,79.63c0,0-37.19-16.03-46.78-38.29
			c1.83,5.25,4.878,14.94,3.198,16.62c-2.34,2.33-62.922-67.33-60.922-82v-16c0,0,10.332-16,34.672-19.33
			c0,0,99.651-36.4,98.251-58.67c0,0,1.921-17.79-0.48-20.45c-2.04-2.26-12.34-25.22-41.34-26.88c0,0-114.52-2.01-123.96,7.44
			c0,0-31.32-10.78-31.32-36.44c0,0-10.33-9.67-13.66-32c0,0,6.87-7.7,15.26-16.05c10.72-10.65,23.92-22.34,28.41-20.29
			c0,0-3.33-5.33,0-8.66c3.33-3.34,23.67-22,49-19.34c0,0,6.89-13.63,11.29-14.66l18.3,0.16l-18.3-1.58c0,0-19.14-8.46-10.97-16.63
			c8.16-8.16,127.34-80.64,165.01-64.64c0,0,126.33-11.99,167,5.34c0,0,3.34,1.34,3.34,4.01c0,0,18-1.37,21.67-0.67
			c0,0,82.64-23.4,93.33-12.71c10.53,10.53-28.15,100-58.31,106.8c4.99-0.87,21.82-3.59,17.98,0.25
			c-4.5,4.5-38.99,18.32-53.99,12.34C537.654,245.658,604.594,296.338,594.004,306.918z"/>
		<path fill="#FFFFFF" d="M308.494,508.598c3.02-1.52-42.456,79.536-39.307,86.838c0,0-35.933-16.471-44.863-38.574
			c1.686,5.205,3.726,14.792,2.059,16.416c-2.323,2.252-60.851-67.491-58.58-81.904l0.296-15.761c0,0,8.303-14.52,32.076-17.355
			c0,0,100.933-35.064,99.981-57.027c0,0,2.387-17.486,0.099-20.15c-1.945-2.264-11.461-28.901-39.681-31.066
			c0,0-111.478-0.242-120.849,8.894c0,0-35.195-6.695-34.72-31.972c0,0-4.966-14.211-7.797-36.269c0,0,6.841-7.459,15.169-15.531
			c67.917-15.11,149.059-36.236,194.089,47.71c0,0,54.776,74.278-32.59,152.12C273.875,474.969,271.535,525.328,308.494,508.598z"/>
		<linearGradient id="SVGID_3_" gradientUnits="userSpaceOnUse" x1="84.5613" y1="290.4585" x2="156.0525" y2="290.4585">
			<stop  offset="0.0598" style="stop-color:#77361E"/>
			<stop  offset="0.1505" style="stop-color:#77361E"/>
			<stop  offset="0.3763" style="stop-color:#FF9F07"/>
			<stop  offset="0.3915" style="stop-color:#FA991D"/>
			<stop  offset="0.4096" style="stop-color:#F69430"/>
			<stop  offset="0.4282" style="stop-color:#F4913B"/>
			<stop  offset="0.4481" style="stop-color:#F3903F"/>
			<stop  offset="0.7634" style="stop-color:#ED683C"/>
			<stop  offset="0.9732" style="stop-color:#E93E3A"/>
		</linearGradient>
		<path fill="url(#SVGID_3_)" stroke="#231F20" stroke-width="2" stroke-miterlimit="10" d="M89.42,304.515l-2.192-15.986
			c0,0,38.318-28.031,71.491-27.53c0,0-14.302,5.424-25.339,13.09c-10.001,6.946-16.937,16.118-15.237,17.646
			c0,0-7.002-4.534-11.816,0.369c0,0-3.406,7.702-1.573,11.975c0,0,1.732,2.278,3.731,2.215c2.999-0.094,0.223,7.122,0.223,7.122
			s-7.64,8.168-9.704,6.202C96.014,316.77,92.654,311.955,89.42,304.515z"/>
		<g>
			<path fill="#231F20" d="M129.425,252.97c0,0,0.66-0.376,1.848-0.936c1.188-0.56,2.901-1.326,5.001-2.098
				c4.184-1.607,9.922-3.273,15.857-4.229c2.968-0.466,5.986-0.758,8.876-0.714c1.442,0.013,2.86,0.142,4.216,0.396
				c0.651,0.113,1.396,0.316,1.934,0.498c0.561,0.179,1.102,0.352,1.622,0.518c0.516,0.161,1.02,0.289,1.458,0.411l0.301,0.073
				l0.103,0.024c0.016,0.012,0.041,0.001-0.083,0.053c-0.049,0.047-0.234,0.057-0.405,0.459c-0.056,0.182-0.045,0.335-0.003,0.464
				c0.015,0.062,0.069,0.153,0.087,0.174c0.095,0.112,0.072,0.055,0.072,0.055c-0.028-0.042-0.101-0.108-0.175-0.167
				c-0.647-0.486-1.347-0.924-1.889-1.263c-1.11-0.699-1.744-1.099-1.744-1.099s0.751,0.091,2.04,0.379
				c0.648,0.162,1.413,0.302,2.344,0.685c0.121,0.053,0.244,0.107,0.4,0.206c0.09,0.071,0.161,0.09,0.321,0.3
				c0.035,0.045,0.098,0.165,0.127,0.253c0.043,0.157,0.068,0.343-0.004,0.551c-0.187,0.462-0.435,0.5-0.537,0.569
				c-0.236,0.094-0.332,0.096-0.437,0.116l-0.263,0.029c-0.146,0.007-0.294,0.014-0.444,0.021c-0.567,0.018-1.111-0.035-1.684-0.075
				c-0.566-0.054-1.155-0.11-1.765-0.168c-0.631-0.056-1.097-0.116-1.712-0.112c-1.167-0.019-2.433,0.045-3.759,0.173
				c-1.324,0.132-2.699,0.294-4.104,0.49c-1.403,0.208-2.835,0.405-4.267,0.65c-5.735,0.918-11.517,1.944-15.924,2.507
				c-2.196,0.312-4.049,0.511-5.352,0.639C130.183,252.929,129.425,252.97,129.425,252.97z"/>
		</g>
		<path fill="#C9C9C9" d="M219.504,270.588c0,0,39.167-1.333,59.833,33.333c0,0,24.902,23.129,18.667,73.333
			c0,0-13.228-33.134-57.75-26.917c0,0,39.459-1.922,31.126-25.503c0,0,3.356-8.973-14.676-34.307L219.504,270.588z"/>
		<g>
			<path fill="#231F20" d="M180.504,227.408c0,0,0.955-0.105,2.316-0.077c1.367,0,3.144,0.141,4.889,0.293
				c1.746,0.159,3.461,0.324,4.725,0.293c0.314-0.017,0.606-0.032,0.856-0.076c0.254-0.041,0.473-0.095,0.652-0.159
				c0.176-0.068,0.326-0.125,0.413-0.187c0.097-0.056,0.148-0.086,0.148-0.086c-0.017-0.016-0.044,0.247-0.323,0.592
				c-0.137,0.169-0.329,0.374-0.584,0.541c-0.25,0.185-0.554,0.355-0.899,0.493c-1.382,0.606-3.322,0.747-5.166,0.581
				c-1.854-0.169-3.644-0.637-4.934-1.163C181.301,227.953,180.504,227.408,180.504,227.408z"/>
		</g>
		<path fill="#231F20" stroke="#231F20" stroke-width="2" stroke-miterlimit="10" d="M246.296,155.669
			c0,0,151.208-4.58,169.208,18.42c0,0,6.93-4-55.285-33c0,0-22.903-8.542-14.559-11.521
			C345.66,129.568,304.725,122.454,246.296,155.669z"/>
		<path fill="#3A3A3A" d="M268.004,153c0,0,54.5-20.92,70-13.42c0,0-55,13.42-46.5,13.42H268.004z"/>
		<path fill="#231F20" stroke="#231F20" stroke-width="2" stroke-miterlimit="10" d="M374.004,128.928c0,0,40,7.161,63.5,37.661
			c0,0,0.502-29.613-3.999-41.056C433.505,125.532,388.004,126.767,374.004,128.928z"/>
		<g>
			<path fill="#231F20" d="M296.768,405.66c0,0,0.065-0.868,0.187-2.496c0.102-1.628,0.344-4.016,0.487-7.053
				c0.083-1.517,0.176-3.196,0.276-5.024c0.058-1.83,0.122-3.809,0.189-5.923c0.06-2.113,0.033-4.363,0.055-6.731
				c-0.023-2.368-0.076-4.857-0.144-7.45c-0.237-5.184-0.614-10.789-1.349-16.669c-0.765-5.875-1.894-12.017-3.492-18.247
				c-1.6-6.23-3.804-12.506-6.573-18.625c-2.752-6.13-6.292-11.995-10.403-17.406c-2.075-2.69-4.247-5.312-6.629-7.719
				c-1.15-1.244-2.413-2.369-3.622-3.543c-1.277-1.1-2.507-2.247-3.832-3.272c-5.207-4.209-10.796-7.795-16.521-10.672
				c-5.724-2.88-11.529-5.148-17.168-6.898c-5.648-1.726-11.112-2.985-16.209-3.883c-5.102-0.872-9.827-1.45-14.034-1.781
				c-4.207-0.331-7.892-0.472-10.929-0.502c-6.077-0.064-9.554,0.235-9.554,0.235s0.858-0.147,2.479-0.359
				c1.621-0.2,4.005-0.492,7.055-0.671c6.09-0.382,14.874-0.517,25.327,0.808c2.611,0.331,5.321,0.766,8.118,1.283
				c2.789,0.552,5.659,1.209,8.581,2.003c5.838,1.599,11.912,3.709,17.891,6.606c2.985,1.45,5.981,3.027,8.883,4.847
				c2.916,1.795,5.784,3.765,8.501,5.974c1.392,1.063,2.689,2.253,4.031,3.396c1.275,1.218,2.604,2.389,3.818,3.683
				c2.509,2.507,4.811,5.233,6.994,8.042c4.269,5.694,7.92,11.848,10.739,18.237c2.865,6.371,4.926,12.94,6.467,19.369
				c1.55,6.434,2.457,12.764,3.04,18.77c0.577,6.012,0.688,11.713,0.678,16.963c-0.061,2.624-0.1,5.139-0.221,7.525
				c-0.163,2.385-0.27,4.648-0.456,6.768c-0.2,2.118-0.388,4.099-0.561,5.932c-0.232,1.826-0.445,3.504-0.638,5.019
				c-0.097,0.756-0.188,1.472-0.274,2.146c-0.108,0.67-0.21,1.298-0.304,1.882c-0.19,1.168-0.351,2.162-0.482,2.968
				C296.908,404.8,296.768,405.66,296.768,405.66z"/>
		</g>
		<path fill="#FFFFFF" d="M199.004,256.939c0,0,22.957-18.014,15.797-39.526c-4.901-14.727,20.46-30.422,26.932-37.541
			c0,0,65.751-17.616,145.271,5.217c0,0-89.145,8.774-140.708,86.097L199.004,256.939z"/>
		<g>
			<path fill="#231F20" d="M271.004,291.24c-57-7.348-93.5,11.348-93.5,11.348s95.288-18.493,111.644,16.004L271.004,291.24z"/>
			<path fill="#231F20" d="M271.004,291.24l-5.938-0.499l-2.969-0.254l-1.484-0.132l-1.487-0.062l-5.944-0.235
				c-0.99-0.031-1.979-0.098-2.97-0.099l-2.974,0.025l-5.945,0.049l-5.936,0.298l-2.967,0.145l-2.957,0.277
				c-1.97,0.197-3.945,0.344-5.91,0.58l-5.881,0.807c-1.962,0.253-3.899,0.672-5.849,1c-1.953,0.318-3.882,0.753-5.811,1.184
				l-2.895,0.637l-2.87,0.739l-2.872,0.728l-2.844,0.83c-1.904,0.527-3.774,1.158-5.648,1.776c-0.942,0.294-1.86,0.654-2.788,0.987
				c-0.927,0.335-1.854,0.671-2.763,1.047c-1.826,0.716-3.658,1.498-5.38,2.339l-0.592-1.716c4.893-0.924,9.779-1.67,14.693-2.336
				c4.911-0.657,9.835-1.221,14.773-1.65c9.877-0.818,19.803-1.21,29.728-0.867c4.961,0.176,9.921,0.547,14.854,1.191
				c4.93,0.655,9.84,1.592,14.62,3.053c4.773,1.441,9.458,3.362,13.652,6.154c2.091,1.393,4.049,3.009,5.754,4.873
				c1.705,1.861,3.146,3.974,4.209,6.266l-0.889,0.502l-8.879-13.804L271.004,291.24z M271.004,291.24l9.305,13.521l9.266,13.547
				l-0.889,0.502c-2.109-4.372-5.66-7.902-9.742-10.5c-4.092-2.622-8.686-4.416-13.383-5.742c-4.705-1.328-9.543-2.189-14.405-2.826
				c-4.87-0.607-9.777-0.945-14.691-1.09c-9.832-0.283-19.687,0.165-29.497,1.035c-4.907,0.426-9.808,0.937-14.694,1.568
				c-4.882,0.632-9.771,1.351-14.594,2.232l-6.688,1.222l6.096-2.938c1.852-0.893,3.683-1.657,5.557-2.381
				c0.929-0.378,1.871-0.713,2.813-1.047c0.943-0.332,1.878-0.691,2.833-0.984c1.902-0.615,3.8-1.243,5.728-1.764l2.881-0.822
				l2.907-0.719l2.91-0.706l2.934-0.592c1.955-0.4,3.909-0.803,5.883-1.09c1.972-0.296,3.931-0.682,5.913-0.903l5.938-0.708
				c1.982-0.203,3.973-0.316,5.958-0.479l2.979-0.226l2.986-0.093l5.971-0.171l5.971,0.124l2.983,0.062
				c0.994,0.03,1.987,0.126,2.98,0.186l5.954,0.409l1.487,0.106l1.479,0.175l2.958,0.361L271.004,291.24z"/>
		</g>
		<g>
			<path fill="#231F20" d="M202.004,273.588c0,0,0.722-0.577,2.116-1.374c1.388-0.808,3.449-1.833,6.048-2.779
				c1.3-0.467,2.732-0.916,4.275-1.298c1.54-0.398,3.193-0.701,4.917-0.953c1.727-0.218,3.526-0.397,5.364-0.41
				c1.837-0.061,3.707,0.062,5.572,0.22c1.859,0.226,3.716,0.504,5.508,0.947c0.896,0.222,1.788,0.425,2.645,0.721
				c0.862,0.273,1.717,0.526,2.528,0.868c1.644,0.609,3.18,1.335,4.593,2.083c0.696,0.398,1.389,0.748,2.023,1.152
				c0.627,0.411,1.234,0.807,1.816,1.188c1.128,0.813,2.135,1.586,2.976,2.329c0.841,0.745,1.566,1.391,2.113,1.983
				c1.104,1.17,1.683,1.873,1.683,1.873s-0.856-0.365-2.262-1.064c-0.694-0.364-1.6-0.7-2.562-1.179
				c-0.481-0.241-1.023-0.443-1.582-0.67c-0.563-0.219-1.126-0.497-1.744-0.723c-1.227-0.469-2.542-0.978-3.956-1.434
				c-1.407-0.469-2.897-0.922-4.453-1.316c-1.548-0.417-3.168-0.751-4.815-1.064c-1.65-0.299-3.336-0.541-5.03-0.722
				c-1.696-0.169-3.398-0.299-5.083-0.349c-1.684-0.07-3.348-0.048-4.965-0.027c-1.614,0.065-3.186,0.116-4.675,0.247
				c-1.492,0.108-2.907,0.251-4.217,0.404c-2.623,0.293-4.825,0.64-6.377,0.903c-0.779,0.138-1.391,0.247-1.808,0.322
				C202.228,273.546,202.004,273.588,202.004,273.588z"/>
		</g>
		<g>
			<path fill="#231F20" d="M174.504,263.498c0,0,0.229-0.178,0.7-0.463c0.47-0.288,1.17-0.695,2.106-1.123
				c0.472-0.209,0.994-0.44,1.563-0.692c0.579-0.223,1.215-0.437,1.895-0.679c0.677-0.261,1.421-0.42,2.198-0.654
				c0.778-0.228,1.606-0.429,2.479-0.578c0.871-0.161,1.78-0.352,2.727-0.508c0.948-0.117,1.934-0.204,2.947-0.311
				c1.015-0.133,2.057-0.144,3.126-0.182c1.067-0.03,2.164-0.081,3.272-0.044c1.108,0.061,2.234,0.123,3.374,0.186
				c0.57,0.038,1.146,0.058,1.72,0.113c0.571,0.078,1.145,0.155,1.721,0.234c1.152,0.161,2.314,0.324,3.48,0.487
				c1.165,0.171,2.305,0.475,3.461,0.707c1.15,0.261,2.3,0.521,3.445,0.781c1.132,0.305,2.241,0.672,3.349,1.004
				c1.104,0.345,2.2,0.688,3.282,1.026c1.079,0.346,2.106,0.792,3.131,1.19c2.035,0.83,4.028,1.57,5.831,2.463
				c1.813,0.87,3.504,1.737,5.058,2.541c0.772,0.413,1.538,0.752,2.216,1.177c0.681,0.418,1.326,0.814,1.933,1.186
				c1.217,0.735,2.256,1.411,3.114,1.96c1.714,1.102,2.666,1.77,2.666,1.77s-1.118-0.361-3.026-1.061
				c-0.953-0.353-2.112-0.77-3.418-1.29c-1.31-0.513-2.779-1.101-4.42-1.644c-1.633-0.561-3.396-1.173-5.235-1.868
				c-0.914-0.365-1.889-0.636-2.876-0.937c-0.99-0.291-1.987-0.627-3.007-0.947c-1.024-0.306-2.04-0.698-3.102-0.977
				c-1.06-0.284-2.132-0.571-3.213-0.86c-1.078-0.295-2.165-0.592-3.256-0.89c-1.103-0.238-2.21-0.478-3.317-0.717
				c-1.107-0.234-2.203-0.541-3.315-0.714c-1.11-0.185-2.216-0.368-3.314-0.551c-2.189-0.443-4.371-0.541-6.474-0.838
				c-1.053-0.118-2.091-0.115-3.108-0.205c-1.017-0.067-2.017-0.159-2.984-0.128c-0.97-0.003-1.914,0.012-2.833-0.007
				c-0.913,0.022-1.794,0.082-2.645,0.119c-0.855,0.017-1.661,0.121-2.433,0.202c-0.77,0.089-1.519,0.113-2.197,0.246
				c-0.685,0.109-1.325,0.223-1.927,0.304c-0.592,0.121-1.135,0.233-1.626,0.333c-0.976,0.227-1.755,0.414-2.266,0.582
				C174.781,263.395,174.504,263.498,174.504,263.498z"/>
		</g>
		<g>
			<path fill="#231F20" d="M215.504,314.088c0,0,0.368-0.073,1.062-0.174c0.693-0.088,1.713-0.258,3.011-0.367
				c1.299-0.126,2.88-0.273,4.694-0.358c1.815-0.094,3.862-0.138,6.099-0.135c2.234,0.023,4.658,0.09,7.217,0.264
				c2.559,0.173,5.257,0.418,8.037,0.804c2.783,0.359,5.648,0.86,8.545,1.465c1.443,0.33,2.906,0.638,4.359,1.022
				c1.448,0.412,2.913,0.767,4.357,1.232c1.443,0.464,2.886,0.919,4.305,1.458c0.712,0.26,1.423,0.514,2.124,0.792
				c0.696,0.297,1.391,0.593,2.083,0.888c2.773,1.159,5.408,2.578,7.894,4.05c1.218,0.793,2.426,1.555,3.554,2.385
				c0.554,0.434,1.101,0.863,1.643,1.287c0.541,0.42,1.076,0.833,1.557,1.313c0.972,0.939,1.971,1.765,2.782,2.761
				c0.837,0.958,1.661,1.852,2.308,2.854c0.335,0.483,0.663,0.955,0.983,1.417c0.326,0.453,0.558,0.967,0.818,1.433
				c0.491,0.956,1.016,1.81,1.305,2.731c0.315,0.9,0.677,1.7,0.871,2.493c0.169,0.793,0.324,1.522,0.465,2.18
				c0.061,0.327,0.148,0.627,0.176,0.923c0.017,0.298,0.033,0.577,0.049,0.836c0.027,0.513,0.049,0.949,0.068,1.302
				c0.023,0.698,0.036,1.07,0.036,1.07s-0.15-0.344-0.43-0.99c-0.133-0.318-0.298-0.711-0.492-1.172
				c-0.189-0.458-0.395-0.983-0.728-1.531c-0.304-0.549-0.64-1.156-1.006-1.817c-0.395-0.638-0.895-1.286-1.377-1.988
				c-0.451-0.72-1.096-1.382-1.715-2.099c-0.328-0.346-0.596-0.744-0.972-1.081c-0.363-0.341-0.735-0.691-1.114-1.047
				c-0.715-0.74-1.582-1.404-2.456-2.094c-0.833-0.728-1.84-1.339-2.805-2.019c-0.961-0.685-2.066-1.261-3.119-1.918
				c-1.107-0.594-2.24-1.201-3.401-1.794c-1.212-0.522-2.377-1.151-3.64-1.658c-1.262-0.506-2.507-1.068-3.82-1.54
				c-0.65-0.245-1.303-0.492-1.957-0.739c-0.665-0.228-1.332-0.457-2-0.686c-1.324-0.486-2.692-0.888-4.051-1.313
				c-2.714-0.867-5.482-1.602-8.209-2.341c-1.373-0.345-2.736-0.687-4.082-1.025c-1.355-0.321-2.693-0.637-4.01-0.949
				c-2.639-0.613-5.207-1.176-7.652-1.694c-2.453-0.514-4.773-0.999-6.914-1.448c-4.323-0.886-7.926-1.624-10.448-2.14
				C216.968,314.412,215.504,314.088,215.504,314.088z"/>
		</g>
		<path fill="#231F20" stroke="#231F20" stroke-width="2" stroke-miterlimit="10" d="M246.284,204.908
			c-6.57,1.57-11.47,2.526-13.28,1.886c0,0,3.11,21.206-2.68,27.206c0,0,18.68-12,18.68,0c0,0-24.76,21.804-26,27.704
			c0,0,61.93-72.013,137.22-76.513c0,0-0.362-7.551-42.862-3.051c0,0-23.362,8.299-45.362,15.289v0.01
			c-9,2.99-18.608,5.73-25.848,7.46C246.152,204.898,246.294,204.898,246.284,204.908"/>
		<linearGradient id="SVGID_4_" gradientUnits="userSpaceOnUse" x1="244.8567" y1="209.2584" x2="272.7952" y2="209.2584">
			<stop  offset="0" style="stop-color:#6EDDFF"/>
			<stop  offset="0.0177" style="stop-color:#5FCFFF"/>
			<stop  offset="0.0637" style="stop-color:#3DB1FF"/>
			<stop  offset="0.1106" style="stop-color:#2299FF"/>
			<stop  offset="0.1583" style="stop-color:#0F88FF"/>
			<stop  offset="0.2072" style="stop-color:#047EFF"/>
			<stop  offset="0.2594" style="stop-color:#007BFF"/>
			<stop  offset="0.479" style="stop-color:#1200FF"/>
			<stop  offset="0.6559" style="stop-color:#2700D4"/>
			<stop  offset="0.8836" style="stop-color:#000594"/>
		</linearGradient>
		<path fill="url(#SVGID_4_)" stroke="#231F20" stroke-width="2" stroke-miterlimit="10" d="M249.004,221.078
			c-7.2,0-2.87-15.62-2.72-16.17c0.01-0.01,0.01-0.01,0.01-0.01c7.24-1.73,16.53-4.47,25.99-7.46
			C276.224,210.618,256.334,221.078,249.004,221.078z"/>
		<g>
			<path fill="#231F20" d="M255.179,202.556c0,0-5.893,7.786-3.207,13.052c0.862,1.69-3.718-5.527-3.163-10.368L255.179,202.556z"/>
			<path fill="#231F20" d="M256.08,202.192l-0.502,0.664c-0.619,0.819-1.193,1.715-1.709,2.623
				c-0.515,0.913-0.976,1.857-1.354,2.831c-0.745,1.931-1.203,4.061-0.699,6.053c0.059,0.247,0.145,0.488,0.236,0.725l0.152,0.35
				l0.088,0.189c0.016,0.04,0.028,0.058,0.052,0.137c0.005,0.026,0.002-0.014,0.012,0.066c0.003,0.038-0.003,0.079-0.015,0.115
				c-0.012,0.004,0.006,0.112-0.223,0.185c-0.234-0.01-0.194-0.061-0.205-0.048l-0.027-0.021l-0.035-0.035l-0.047-0.061
				c-0.317-0.489-0.545-0.953-0.791-1.44c-0.475-0.967-0.899-1.956-1.264-2.968c-0.364-1.012-0.671-2.047-0.875-3.106
				c-0.201-1.057-0.303-2.146-0.169-3.225l0.008-0.062l0.056-0.023l6.41-2.587L256.08,202.192z M254.383,202.905l-5.533,2.431
				l0.063-0.085c-0.172,2.11,0.458,4.201,1.214,6.163c0.39,0.985,0.837,1.948,1.333,2.882c0.247,0.459,0.512,0.945,0.788,1.343
				l0.014,0.018c0.004,0.005-0.005-0.006-0.018-0.017l-0.018-0.013c-0.008,0.016,0.036-0.032-0.194-0.044
				c-0.224,0.074-0.203,0.182-0.216,0.18c-0.012,0.032-0.017,0.069-0.015,0.103l0.006,0.042c0.005,0.016-0.012-0.027-0.023-0.048
				l-0.086-0.171l-0.179-0.379c-0.108-0.257-0.21-0.519-0.284-0.788c-0.619-2.175-0.184-4.453,0.527-6.49
				c0.363-1.029,0.811-2.022,1.315-2.984C253.471,204.307,253.92,203.61,254.383,202.905z"/>
		</g>
		<path fill="#231F20" stroke="#231F20" stroke-miterlimit="10" d="M445.525,125.669c0,0,49.479,27.42,42.979,63.92
			c0,0,15.181-39.858,10.091-58.929C498.594,130.659,457.545,125.806,445.525,125.669z"/>
		<path fill="#231F20" stroke="#231F20" stroke-miterlimit="10" d="M348.504,414.088c0,0,0.403-0.221,1.148-0.648
			c0.443-0.254,1.008-0.581,1.68-0.979c14.402-8.506,69.506-44.874,64.402-91.588c0,0-0.73-40.786-100.73-40.786
			c0,0,79.333,8.333,80.667,55.5c1.333,47.167-38.722,72.075-43.555,76.408"/>
		<path fill="#231F20" stroke="#231F20" stroke-miterlimit="10" d="M322.004,252.97c0,0,136,21.119,130.5,79.082
			c0,0-5,32.657-46.742,58.036c0,0-59.258,42-64.758,62.5c0,0,55.5-38.5,94-53c0,0,76-32.428,86.5-78.714
			c0,0,24-61.351-70.5-118.319c0,0,36,45.667,36,56.35c0,0,12.5,38.183-17.5,27.183C469.504,286.088,391.504,233.851,322.004,252.97
			"/>
		<path fill="#231F20" stroke="#231F20" stroke-miterlimit="10" d="M536.004,274.088c0,0,15,67-27.5,105
			c-27.232,26.568-57.335,33.667-79,35c0,0,80.5,3.5,103-40.5c0,0,23.995-32.71,3.995-96.927"/>
		<linearGradient id="SVGID_5_" gradientUnits="userSpaceOnUse" x1="132.0117" y1="376.7921" x2="238.985" y2="376.7921">
			<stop  offset="0" style="stop-color:#FFD26A"/>
			<stop  offset="0.0306" style="stop-color:#FFE26F"/>
			<stop  offset="0.0668" style="stop-color:#FFED73"/>
			<stop  offset="0.1055" style="stop-color:#FFF174"/>
			<stop  offset="0.3946" style="stop-color:#F3903F"/>
			<stop  offset="0.4323" style="stop-color:#F2893E"/>
			<stop  offset="0.62" style="stop-color:#ED683C"/>
			<stop  offset="0.9732" style="stop-color:#E93E3A"/>
		</linearGradient>
		<path fill="url(#SVGID_5_)" stroke="#231F20" stroke-width="2" stroke-miterlimit="10" d="M137.692,359.495
			c0,0,32.922,38.073,37.658,38.073c0,0-1.058-43.749-3.696-41.467C171.654,356.101,135.052,357.212,137.692,359.495z"/>
		<linearGradient id="SVGID_6_" gradientUnits="userSpaceOnUse" x1="176.686" y1="435.187" x2="252.0338" y2="435.187">
			<stop  offset="0.0106" style="stop-color:#FFF074"/>
			<stop  offset="0.0529" style="stop-color:#FFF174"/>
			<stop  offset="0.2136" style="stop-color:#FFD26A"/>
			<stop  offset="0.2166" style="stop-color:#FFD169"/>
			<stop  offset="0.4323" style="stop-color:#F2893E"/>
			<stop  offset="0.7721" style="stop-color:#ED683C"/>
			<stop  offset="0.8736" style="stop-color:#F3903F"/>
			<stop  offset="0.9732" style="stop-color:#E93E3A"/>
		</linearGradient>
		<path fill="url(#SVGID_6_)" stroke="#231F20" stroke-width="2" stroke-miterlimit="10" d="M199.113,455.841
			c0,0-26.636-20.772-28.165-41.308c0,0,63.674,26.281,75.348,23.525L199.113,455.841"/>
		<path fill="#231F20" stroke="#231F20" stroke-width="2" stroke-miterlimit="10" d="M272.49,436.298
			c0,0,17.66-10.467,34.994-19.633c0,0-1.813,25.257-16.48,61.59c0,0,5.326-40.116-1.674-40.116
			C289.33,438.139,298.934,440.341,272.49,436.298z"/>
		<path fill="#FFFFFF" stroke="#231F20" stroke-width="3" stroke-miterlimit="10" d="M544.123,184.359
			c0,0,10.575-34.228,61.712-27.446c0,0-3.793,44.14-44.228,48.475c0,0,4.581-14.369,11.811-13.83c0,0-17.645-2.068-21.675,4.902
			c0,0,13.754-22.192,25.976-16.329C578.061,180.294,563.363,171.755,544.123,184.359z"/>
		<g>
			<path fill="#C9C9C9" d="M244.857,565.255c1.817,1.089,3.589,2.244,5.355,3.408c1.755,1.178,3.497,2.377,5.223,3.602
				c0.861,0.614,1.711,1.245,2.561,1.878c0.847,0.638,1.71,1.249,2.545,1.913l2.49,2.003l2.448,2.128l-2.695,0.705
				c0.328-1.36,0.707-2.631,1.114-3.923c0.405-1.286,0.823-2.565,1.266-3.836c0.859-2.552,1.876-5.043,2.919-7.522
				c1.044-2.479,2.162-4.928,3.392-7.321c0.6-1.204,1.234-2.392,1.867-3.578c0.639-1.184,1.285-2.365,1.985-3.515
				c0.69-1.155,1.395-2.303,2.118-3.438c0.725-1.134,1.447-2.269,2.226-3.368c0.769-1.105,1.569-2.189,2.37-3.269
				c0.816-1.07,1.617-2.15,2.493-3.174c0.845-1.045,1.745-2.048,2.622-3.063c0.905-0.994,1.822-1.975,2.775-2.922l1.426-1.418
				l1.485-1.358c0.97-0.92,2.034-1.747,3.061-2.598c-0.803,1.075-1.651,2.098-2.441,3.169c-0.809,1.054-1.59,2.125-2.37,3.193
				c-0.796,1.054-1.51,2.173-2.285,3.237c-0.737,1.095-1.493,2.171-2.194,3.288c-1.438,2.204-2.838,4.428-4.154,6.701
				c-0.66,1.135-1.337,2.259-1.975,3.406c-0.647,1.141-1.274,2.294-1.887,3.454l-1.831,3.483c-0.597,1.168-1.194,2.336-1.759,3.52
				c-0.58,1.176-1.118,2.373-1.681,3.558c-0.563,1.185-1.109,2.378-1.645,3.576c-1.074,2.395-2.049,4.832-3.053,7.257
				c-0.496,1.215-0.967,2.44-1.424,3.667l-1.312,3.669l-0.903,2.526l-1.792-1.822l-2.158-2.194l-2.275-2.143
				c-0.741-0.734-1.529-1.431-2.293-2.149c-0.768-0.715-1.538-1.428-2.323-2.128l-4.654-4.275
				C247.941,568.149,246.388,566.72,244.857,565.255z"/>
		</g>
	</g>
</g>
</svg>
